{"title":"Andy Griffith S03E20(1963)MPEG-4[DaScubaDude]","uid":13296718,"size":253941758,"categoryP":"video","categoryS":"tv_shows","magnet":"?xt=urn:btih:0926174dbf621074ef0a9f051e93322b32731023&amp;dn=Andy+Griffith+S03E20%281963%29MPEG-4%5BDaScubaDude%5D&amp;tr=udp%3A%2F%2Ftracker.leechers-paradise.org%3A6969&amp;tr=udp%3A%2F%2Fzer0day.ch%3A1337&amp;tr=udp%3A%2F%2Fopen.demonii.com%3A1337&amp;tr=udp%3A%2F%2Ftracker.coppersurfer.tk%3A6969&amp;tr=udp%3A%2F%2Fexodus.desync.com%3A6969","seeders":0,"leechers":0,"uploader":"dascuba","files":1,"time":1453643431,"description":"The Andy Griffith Show (1960–1968)\r\nTV Series  |  30 min  |  Comedy, Family\r\n8.3 Your rating:   -/10   Ratings: 8.3/10 from 7,799 users   \r\nReviews: 54 user | 48 critic\r\nWidower Sheriff Andy and his son Opie live with Andy's Aunt Bee in Mayberry NC. With virtually no crimes to solve, most of Andy's time is spent philosophizing and calming down his cousin Deputy Barney.\r\n\r\nCreators: Sheldon Leonard, Aaron Ruben, Danny Thomas\r\nStars: Andy Griffith, Ron Howard, Don Knotts\r\n\r\nGeneral\r\nComplete name                            :Andy Griffith S03E20ANDY_GRIFFITH_SHOW_S03E20.mp4\r\nFormat                                   : MPEG-4\r\nFormat profile                           : Base Media\r\nCodec ID                                 : isom\r\nFile size                                : 242 MiB\r\nDuration                                 : 25mn 26s\r\nOverall bit rate                         : 1 331 Kbps\r\nMovie name                               : ANDY_GRIFFITH_SHOW_VOL3\r\nGenre                                    : Comedy\r\nWriting application                      : Lavf54.6.100\r\n\r\nVideo\r\nID                                       : 1\r\nFormat                                   : AVC\r\nFormat/Info                              : Advanced Video Codec\r\nFormat profile                           :   \r\nFormat settings, CABAC                   : No\r\nFormat settings, ReFrames                : 6 frames\r\nFormat settings, GOP                     : N=1\r\nCodec ID                                 : avc1\r\nCodec ID/Info                            : Advanced Video Coding\r\nDuration                                 : 25mn 26s\r\nBit rate                                 : 1 196 Kbps\r\nWidth                                    : 720 pixels\r\nHeight                                   : 540 pixels\r\nDisplay aspect ratio                     : 4:3\r\nFrame rate mode                          : Constant\r\nFrame rate                               : 29.970 fps\r\nColor space                              : YUV\r\nChroma subsampling                       : 4:2:0\r\nBit depth                                : 8 bits\r\nScan type                                : Progressive\r\nBits/(Pixel*Frame)                       : 0.103\r\nStream size                              : 218 MiB (90%)\r\n\r\nAudio\r\nID                                       : 2\r\nFormat                                   : AAC\r\nFormat/Info                              : Advanced Audio Codec\r\nFormat profile                           : LC\r\nCodec ID                                 : 40\r\nDuration                                 : 25mn 26s\r\nBit rate mode                            : Constant\r\nBit rate                                 : 128 Kbps\r\nChannel(s)                               : 2 channels\r\nChannel positions                        : Front: L R\r\nSampling rate                            : 44.1 KHz\r\nCompression mode                         : Lossy\r\nStream size                              : 23.3 MiB (10%)","torrent":{"xt":"urn:btih:0926174dbf621074ef0a9f051e93322b32731023","amp;dn":"Andy+Griffith+S03E20%281963%29MPEG-4%5BDaScubaDude%5D","amp;tr":["udp%3A%2F%2Ftracker.leechers-paradise.org%3A6969","udp%3A%2F%2Fzer0day.ch%3A1337","udp%3A%2F%2Fopen.demonii.com%3A1337","udp%3A%2F%2Ftracker.coppersurfer.tk%3A6969","udp%3A%2F%2Fexodus.desync.com%3A6969"],"infoHash":"0926174dbf621074ef0a9f051e93322b32731023","infoHashBuffer":{"type":"Buffer","data":[9,38,23,77,191,98,16,116,239,10,159,5,30,147,50,43,50,115,16,35]},"announce":[],"urlList":[]}}